<svg width="20" height="18" viewBox="0 0 20 18" fill="none" xmlns="http://www.w3.org/2000/svg">
<path d="M1.19995 10.255H18.7999C19.4627 10.255 20 9.81849 20 9.27978C20 8.74121 19.4629 8.30469 18.7999 8.30469H1.19995C0.537252 8.30482 0 8.74134 0 9.27991C0 9.81849 0.537252 10.255 1.19995 10.255Z" fill="#707070"/>
<path d="M1.19995 5.59632H18.7999C19.4627 5.59632 20 5.1598 20 4.62109C20 4.08251 19.4629 3.646 18.7999 3.646H1.19995C0.537252 3.64613 0 4.08265 0 4.62122C0 5.1598 0.537252 5.59632 1.19995 5.59632Z" fill="#707070"/>
<path d="M1.19995 14.9137H18.7999C19.4627 14.9137 20 14.4772 20 13.9385C20 13.3999 19.4629 12.9634 18.7999 12.9634H1.19995C0.537252 12.9635 0 13.4 0 13.9386C0 14.4772 0.537252 14.9137 1.19995 14.9137Z" fill="#707070"/>
</svg>
