<svg width="12" height="13" viewBox="0 0 12 13" fill="none" xmlns="http://www.w3.org/2000/svg">
<path fill-rule="evenodd" clip-rule="evenodd" d="M6.27325 0.752802C6.13913 0.749951 5.99102 0.749977 5.82259 0.750006L5.77039 0.750012H5.24069L5.22227 0.750012C4.61271 0.750009 4.12964 0.750006 3.74027 0.781819C3.3421 0.814351 3.00519 0.882225 2.69756 1.03897C2.19871 1.29315 1.79314 1.69872 1.53896 2.19757C1.38221 2.5052 1.31434 2.84211 1.28181 3.24028C1.24999 3.62965 1.25 4.11272 1.25 4.72228V4.72229V4.74071V8.75931V8.77773V8.77773C1.25 9.3873 1.24999 9.87036 1.28181 10.2597C1.31434 10.6579 1.38221 10.9948 1.53896 11.3024C1.79314 11.8013 2.19871 12.2069 2.69756 12.461C3.00519 12.6178 3.3421 12.6857 3.74027 12.7182C4.12964 12.75 4.6127 12.75 5.22226 12.75H5.24069H7.02674H7.04517C7.65473 12.75 8.1378 12.75 8.52716 12.7182C8.92533 12.6857 9.26224 12.6178 9.56987 12.461C10.0687 12.2069 10.4743 11.8013 10.7285 11.3024C10.8852 10.9948 10.9531 10.6579 10.9856 10.2597C11.0174 9.87036 11.0174 9.3873 11.0174 8.77774V8.75931V6.11792L11.0174 6.07135V6.07132C11.0175 5.84435 11.0175 5.65855 11.0096 5.49418H8.4779H8.46091H8.46088C8.16277 5.49419 7.91393 5.49419 7.71065 5.47758C7.49862 5.46026 7.29955 5.4228 7.11132 5.32689C6.82251 5.17973 6.5877 4.94493 6.44055 4.65612C6.34463 4.46788 6.30718 4.26882 6.28985 4.05679C6.27324 3.8535 6.27325 3.60465 6.27325 3.30652V3.28953V0.752802ZM10.8354 4.65697H8.4779C8.15841 4.65697 7.94396 4.65665 7.77882 4.64315C7.61857 4.63006 7.54195 4.60669 7.4914 4.58093C7.36012 4.51404 7.25339 4.40731 7.18651 4.27604C7.16075 4.22549 7.13737 4.14887 7.12428 3.98861C7.11079 3.82347 7.11046 3.60903 7.11046 3.28953V0.868965C7.32077 0.934179 7.52235 1.02541 7.71047 1.14069C7.97855 1.30497 8.20459 1.53108 8.55533 1.88194L8.59223 1.91886L9.22041 2.54703C9.22798 2.55461 9.23527 2.56247 9.24224 2.57061L10.0567 3.52081L10.087 3.55616L10.087 3.55617L10.087 3.55618C10.3764 3.89373 10.563 4.11132 10.6979 4.36059C10.7498 4.45658 10.7958 4.55557 10.8354 4.65697ZM6.13372 6.33139C6.36491 6.33139 6.55232 6.51881 6.55232 6.74999V9.7248L7.53003 8.85573C7.70282 8.70213 7.96741 8.7177 8.12101 8.89049C8.2746 9.06328 8.25904 9.32787 8.08624 9.48146L6.41183 10.9698C6.25322 11.1108 6.01422 11.1108 5.85561 10.9698L4.1812 9.48146C4.00841 9.32787 3.99284 9.06328 4.14644 8.89049C4.30003 8.7177 4.56462 8.70213 4.73741 8.85573L5.71512 9.7248V6.74999C5.71512 6.51881 5.90253 6.33139 6.13372 6.33139Z" fill="white"/>
</svg>
