<svg width="12" height="12" viewBox="0 0 12 12" fill="none" xmlns="http://www.w3.org/2000/svg">
<g clip-path="url(#clip0_475_1428)">
<path d="M0 4V3.5C0 2.1215 1.1215 1 2.5 1H3V0.5C3 0.224 3.2235 0 3.5 0C3.7765 0 4 0.224 4 0.5V1H8V0.5C8 0.224 8.2235 0 8.5 0C8.7765 0 9 0.224 9 0.5V1H9.5C10.8785 1 12 2.1215 12 3.5V4H0ZM12 5V9.5C12 10.8785 10.8785 12 9.5 12H2.5C1.1215 12 0 10.8785 0 9.5V5H12ZM6 9.5C6 9.224 5.7765 9 5.5 9H3C2.7235 9 2.5 9.224 2.5 9.5C2.5 9.776 2.7235 10 3 10H5.5C5.7765 10 6 9.776 6 9.5ZM9.5 7.5C9.5 7.224 9.2765 7 9 7H3C2.7235 7 2.5 7.224 2.5 7.5C2.5 7.776 2.7235 8 3 8H9C9.2765 8 9.5 7.776 9.5 7.5Z" fill="#8F90A6"/>
</g>
<defs>
<clipPath id="clip0_475_1428">
<rect width="12" height="12" fill="white"/>
</clipPath>
</defs>
</svg>
