<svg width="12" height="13" viewBox="0 0 12 13" fill="none" xmlns="http://www.w3.org/2000/svg">
<g clip-path="url(#clip0_563_10)">
<path d="M11.6169 11.4301L8.76083 8.45969C9.49516 7.58675 9.89751 6.48841 9.89751 5.345C9.89751 2.67351 7.724 0.5 5.05252 0.5C2.38103 0.5 0.20752 2.67351 0.20752 5.345C0.20752 8.01648 2.38103 10.19 5.05252 10.19C6.05543 10.19 7.01116 9.88749 7.82828 9.31326L10.706 12.3062C10.8263 12.4311 10.9881 12.5 11.1614 12.5C11.3255 12.5 11.4812 12.4374 11.5994 12.3237C11.8505 12.0821 11.8585 11.6814 11.6169 11.4301ZM5.05252 1.76391C7.02717 1.76391 8.6336 3.37034 8.6336 5.345C8.6336 7.31965 7.02717 8.92608 5.05252 8.92608C3.07786 8.92608 1.47143 7.31965 1.47143 5.345C1.47143 3.37034 3.07786 1.76391 5.05252 1.76391Z" fill="white"/>
</g>
<defs>
<clipPath id="clip0_563_10">
<rect width="12" height="12" fill="white" transform="translate(0 0.5)"/>
</clipPath>
</defs>
</svg>
